<svg width="22" height="19" viewBox="0 0 22 19" fill="none" xmlns="http://www.w3.org/2000/svg">
<path d="M3.9479 4.06716L5.22784 4.05493L5.53827 3.05192C5.7401 2.46319 6.12004 1.95181 6.62544 1.58862C7.13084 1.22543 7.73668 1.02842 8.35903 1.02487L13.4788 0.975948C14.1072 0.971119 14.7213 1.16377 15.2344 1.5267C15.7474 1.88964 16.1336 2.40454 16.3383 2.99872L16.6678 3.99561L17.9477 3.98338C18.7434 3.97578 19.5094 4.28455 20.0774 4.84175C20.6453 5.39896 20.9687 6.15897 20.9763 6.95458L21.0527 14.9542C21.0603 15.7498 20.7515 16.5159 20.1943 17.0838C19.6371 17.6518 18.8771 17.9751 18.0815 17.9827L4.08215 18.1165C3.28654 18.1241 2.52049 17.8154 1.95253 17.2581C1.38457 16.7009 1.06122 15.9409 1.05362 15.1453L0.97718 7.14569C0.966739 6.74761 1.03565 6.35145 1.1799 5.98028C1.32415 5.60912 1.54085 5.27039 1.81736 4.98384C2.09388 4.69729 2.42467 4.46866 2.79046 4.31128C3.15625 4.1539 3.54971 4.07091 3.9479 4.06716ZM3.05305 15.0762C3.05559 15.3414 3.16337 15.5948 3.35269 15.7805C3.54201 15.9662 3.79736 16.0691 4.06256 16.0666L18.0619 15.9328C18.3271 15.9303 18.5805 15.8225 18.7662 15.6332C18.9519 15.4439 19.0549 15.1885 19.0523 14.9233L18.9759 6.92369C18.9733 6.65849 18.8656 6.40515 18.6762 6.21942C18.4869 6.03368 18.2316 5.93076 17.9664 5.93329L15.9665 5.95241C15.7485 5.96587 15.5322 5.90763 15.3504 5.78657C15.1687 5.66551 15.0316 5.4883 14.96 5.28199L14.4044 3.64723C14.3354 3.44926 14.2059 3.27797 14.0343 3.15758C13.8627 3.03719 13.6575 2.97379 13.4479 2.97633L8.32814 3.02526C8.1185 3.02672 7.91463 3.09403 7.74533 3.21768C7.57603 3.34132 7.44987 3.51505 7.38468 3.7143L6.86038 5.35939C6.79804 5.55074 6.67941 5.71882 6.52 5.84167C6.3606 5.96452 6.16784 6.03642 5.96692 6.04796L3.96701 6.06707C3.70181 6.0696 3.44847 6.17739 3.26273 6.3667C3.077 6.55602 2.97408 6.81137 2.97661 7.07658L3.05305 15.0762ZM10.9667 6.00018C11.7578 5.99262 12.5333 6.21982 13.1953 6.65304C13.8573 7.08626 14.3759 7.70604 14.6856 8.43402C14.9954 9.162 15.0822 9.96547 14.9353 10.7428C14.7884 11.5202 14.4143 12.2365 13.8602 12.8013C13.3062 13.366 12.5971 13.7538 11.8227 13.9155C11.0483 14.0773 10.2433 14.0057 9.50956 13.71C8.77579 13.4142 8.14621 12.9075 7.70042 12.254C7.25463 11.6004 7.01265 10.8293 7.00509 10.0382C6.99496 8.9774 7.40664 7.95601 8.14959 7.19873C8.89253 6.44145 9.90587 6.01032 10.9667 6.00018ZM11.024 11.9999C11.4196 11.9961 11.8051 11.8751 12.1319 11.6522C12.4587 11.4293 12.712 11.1146 12.8599 10.7477C13.0078 10.3808 13.0435 9.9783 12.9627 9.59109C12.8818 9.20389 12.6879 8.84936 12.4055 8.57234C12.1232 8.29532 11.765 8.10825 11.3763 8.03479C10.9876 7.96133 10.5859 8.00478 10.2219 8.15964C9.85793 8.3145 9.54804 8.57382 9.33143 8.9048C9.11482 9.23578 9.00122 9.62356 9.005 10.0191C9.01007 10.5495 9.22564 11.0562 9.60428 11.4277C9.98292 11.7991 10.4936 12.005 11.024 11.9999Z" fill="#2D2F30"/>
</svg>
